# xmcd
#
# Track frame offsets:
#	150
#	15142
#	27371
#	36828
#	47027
#	61582
#	72167
#	83816
#	91841
#	102221
#	111148
#	120116
#	132781
#	141407
#	150629
#	163486
#	173061
#	182151
#	191741
#	202623
#	215087
#	225809
#	234217
#	243418
#	254173
#	264159
#	273479
#	281386
#
# Disc length: 3893 seconds
#
# Revision: 1
# Processed by: cddbd v1.5.2PL0 Copyright (c) Steve Scherf et al.
# Submitted via: audiograbber 1.83.01
#
DISCID=710f331c
DTITLE=Various Artist - Hitsville U.S.A.
DYEAR=1900
DGENRE=
TTITLE0=The Hustlers - Boston Monkey
TTITLE1=Ozzie Torrens - Ozzaboo
TTITLE2=Sonny Knight - Besame Mucho
TTITLE3=Barney Kessel - Summertime
TTITLE4=Johnnie Taylor - Blues In The Night
TTITLE5=Huey 'Piano' Smith and The Clowns - He's Back Again
TTITLE6=Lucky Clark - Let Me Be The Fool
TTITLE7=Jimmy Hughes - My Loving Time
TTITLE8=Bobby and Valerie Capers - West 4th Street
TTITLE9=Jimmy Dell - Skippin'
TTITLE10=Betty O'Brien - She'll Be Gone
TTITLE11=Jack Costanzo - Viva Tirado
TTITLE12=Little Dean's Combo - Drop Out
TTITLE13=The Sherwoods - Nanette
TTITLE14=La Lupe - Fever
TTITLE15=Jimmy Gilford - Nobody Loves Me Like My Baby
TTITLE16=Dorothy Berry - Watch Out
TTITLE17=Jimmy Wisner - Choppin' Around
TTITLE18=The Champs - Sombrero
TTITLE19=The Tomko's - Spook
TTITLE20=Curtis Blandon - Mr. Imagination
TTITLE21=Clarence Hill - A Lot Of Loving Going Around
TTITLE22=Brenton Wood - Mr. Schemer
TTITLE23=Gale Garnett - You've Been Talking About Me Baby
TTITLE24=Jimmy Beaumont - There's No Other Love
TTITLE25=Hank Levine - Image
TTITLE26=The Diablos - El Bandito
TTITLE27=The Five Counts - Watermelon Walk
EXTD=
EXTT0=
EXTT1=
EXTT2=
EXTT3=
EXTT4=
EXTT5=
EXTT6=
EXTT7=
EXTT8=
EXTT9=
EXTT10=
EXTT11=
EXTT12=
EXTT13=
EXTT14=
EXTT15=
EXTT16=
EXTT17=
EXTT18=
EXTT19=
EXTT20=
EXTT21=
EXTT22=
EXTT23=
EXTT24=
EXTT25=
EXTT26=
EXTT27=
PLAYORDER=
